# xmcd
#
# Track frame offsets:
#	150
#	10426
#	24154
#	38779
#	44202
#	56347
#	71274
#	88160
#	97805
#	109090
#	123774
#	141001
#
# Disc length: 2017 seconds
#
# Revision: 0
# Processed by: cddbd v1.4PL0 Copyright (c) Steve Scherf et al.
# Submitted via: dBpowerAMP V4.0
#
DISCID=9507df0c
DTITLE=El As De La Sierra - El Pesudo
DYEAR=2002
DGENRE=Other
TTITLE0=El Pesudo
TTITLE1=Los Plebes Atrevidos
TTITLE2=El Cantinero
TTITLE3=El Asesino Enhierbado
TTITLE4=Entre Copa y Copa
TTITLE5=Cuando El Destino
TTITLE6=La Pedrada
TTITLE7=El Ayudante
TTITLE8=Los Dos Amantes
TTITLE9=Nunca Vuelvas
TTITLE10=Atado A Tus Caprichos
TTITLE11=La Lampara
EXTD=dMk
EXTT0=
EXTT1=
EXTT2=
EXTT3=
EXTT4=
EXTT5=
EXTT6=
EXTT7=
EXTT8=
EXTT9=
EXTT10=
EXTT11=
PLAYORDER=
